<svg version="1" xmlns="http://www.w3.org/2000/svg" width="476" height="476" viewBox="0 0 357 357"><path d="M161 .7C114.9 5.9 74.2 26.9 44.3 61 20.9 87.6 6 121 1.2 157.5c-.9 6.7-.9 34.4.1 42.8 3.5 32.2 18.8 67.3 40.7 93.2 28.6 33.8 67.2 55.1 112.5 61.9 8.9 1.4 40.9 1.4 48.5.1 17.6-3 27.1-5.6 40-10.5 9-3.5 26.4-12.2 29.1-14.6.8-.8 1.9-1.4 2.4-1.4 1.6 0 19.1-13.8 26.9-21.1 15-14.1 30.3-35.4 38.9-53.9 3.9-8.4 10.5-26.9 11.3-31.9.3-1.4.9-4.2 1.4-6.1 4.5-17.2 5-40.8 1.5-67.6-.8-6.5-5.4-23.3-9-32.9-5.9-15.9-14.4-31-26.4-47-6.9-9.3-25.7-27.3-36.1-34.7-20.7-14.7-46.6-26-69.1-30.3-1.3-.3-3.5-.7-4.9-1-1.4-.3-4.3-.7-6.5-1.1-5-.7-36.8-1.3-41.5-.7zm49.8 105.8c4.5 2.6 8.2 5.2 8.2 5.9 0 .9-16.9 44.3-20 51.1-.5 1.1-5.2 13-10.5 26.5l-12 30c-1.3 3-7.2 17.6-13 32.5-5.9 14.8-10.9 27.3-11.1 27.7-.5.7-13.1-6.9-16.5-9.8-1.4-1.3-.5-4.2 9.3-28.7 5.9-14.9 11.2-28.1 11.7-29.2.5-1.1 4-9.7 7.6-19 3.7-9.4 7.3-18.4 8-20 .7-1.7 2-5 3-7.5.9-2.5 2.3-5.9 3-7.5.7-1.7 6.2-15.2 12.1-30.2 5.9-15 11-27.1 11.3-26.9.3.2 4.3 2.5 8.9 5.1zm38.7 25.3c2.2 1.3 7.3 4.5 11.2 7 4 2.6 18 11.6 31.2 20l23.9 15.2-.1 7.5c0 5.5-.4 7.8-1.6 8.9-.9.7-14.2 9.8-29.6 20.1-15.4 10.4-30.9 20.8-34.3 23.2-9 6.3-8.8 6.3-11.5.1-1.3-2.9-3.4-7.5-4.7-10.1-2.7-5.6-3.8-4.1 11-14.4 23.3-16.2 31-21 37.8-23.7 7.1-2.9 9.1-4.6 5.3-4.6-1.1 0-2.2-.4-2.5-.9-.3-.4-2.7-1.4-5.3-2.2-3.1-.8-12.6-6.5-26.3-15.7-11.8-7.9-21.8-14.7-22.3-15.1-.4-.4 1.4-5.3 4-10.9l4.7-10.2 2.6 1.7c1.4.9 4.3 2.8 6.5 4.1zm-127.3 5c3.4 7.3 4.3 10 3.5 10.8-4.8 4.6-41.7 28.8-48.7 31.8-4.7 2.1-8.6 3.9-8.7 4-.2.1 3.5 1.7 8.2 3.5 6.2 2.3 14.4 7.1 30 17.5l21.5 14.3-5 10.2c-2.7 5.5-5.2 10.1-5.4 10.1-.3 0-6.3-3.7-13.3-8.3-7-4.6-23.7-15.2-37.1-23.7l-24.3-15.4.3-7.9.3-8 31-20.9c41.6-28.2 40.9-27.6 42-27.7.6-.1 3.1 4.3 5.7 9.7z"/></svg>