<svg xmlns="http://www.w3.org/2000/svg" viewBox="0 0 47.902 47.902"><path fill="#f3f3f1" d="M2.116 28.979v16.072c0 1.792.645 2.569 1.567 2.773 1.078.239 2.195-.148 2.464-.203.182-.036.348-.104.445-.203l.104-.104c.059-.059.54-.296 1.058-.566.332-.173.646-.349.927-.512l34.667-20.097c3.553-2.059 3.035-4.261-.332-6.091-5.896-3.206-11.795-6.411-17.691-9.616L6.929.435C6.918.429 6.904.426 6.89.423a.207.207 0 0 1-.069-.026L6.794.382a1.775 1.775 0 0 0-.043-.013.147.147 0 0 1-.06-.032L6.672.318a.455.455 0 0 0-.257-.127C6.257.162 5.204-.191 4.15.141 1.988.823 2.117 4.309 2.117 6.872l-.001 22.107zm29.638 2.831c-2.344 1.357-4.684 2.715-7.026 4.073l-6.126 3.552c-.956.554-1.076.392-.27-.363 1.302-1.218 2.594-2.427 3.859-3.614.807-.756 1.631-1.475 2.447-2.22.845-.772 2.087-1.915 3.611-3.32.811-.749 1.352-1.479 1.209-1.633s-.908.339-1.713 1.096c-.795.748-1.715 1.61-2.74 2.57-3.552 3.503-.587.411-8.022 7.828-.782.78-2.191 1.864-3.147 2.417l-3.116 1.806c-.955.555-1.099.368-.32-.416l16.615-16.731a1.92 1.92 0 0 1 2.781.037l2.314 2.46c.759.803.601 1.904-.356 2.458zm4.844-13.878l.469.255c2.438 1.324 10.461 4.479 5.016 7.636-1.881 1.089-3.76 2.179-5.639 3.269-.955.554-2.006.71-2.346.351-.338-.36-.154-1.116.41-1.688.564-.571.932-1.133.816-1.253-.111-.12-.658.249-1.223.825-.561.576-1.412.622-1.9.104-.486-.52-.26-1.579.514-2.369 1.311-1.337 2.607-2.664 3.871-3.949.773-.788 1.141-1.569.818-1.744-.322-.175-1.215.319-1.992 1.104L31.81 24.1c-.777.784-1.572 1.248-1.771 1.034-.201-.214.266-1.023 1.043-1.809 1.223-1.236 2.348-2.375 3.346-3.386.777-.786 1.379-1.439 1.344-1.458-.033-.018-.691.602-1.471 1.386l-3.324 3.347c-.777.784-1.445 1.379-1.492 1.33-.047-.049.547-.725 1.326-1.508 1.303-1.312 2.605-2.626 3.91-3.938.779-.786 1.619-1.307 1.877-1.166zM11.033 4.039c7.458 4.051 14.914 8.104 22.371 12.157.971.527 1.125 1.59.348 2.375l-1.615 1.627c-.779.784-1.582 1.235-1.797 1.008-.213-.227-.848.05-1.414.62s-1.496.535-2.074-.079c-.578-.613-.59-1.577-.027-2.151.562-.575.963-1.101.893-1.176-.07-.075-.609.303-1.203.843-.596.541-1.449.585-1.907.098-.458-.487-.356-1.329.228-1.881.583-.552 1.031-1.026 1.001-1.057-.029-.031-.518.398-1.093.96-.575.562-1.442.592-1.938.066-.494-.525-.418-1.394.171-1.94.59-.547.87-1.2.626-1.458-.244-.259-.919-.026-1.508.521s-1.277.766-1.538.489c-.261-.276.004-.945.591-1.494s.989-1.074.896-1.171c-.093-.098-.629.282-1.198.85-.57.567-1.409.625-1.877.129-.467-.496-.391-1.366.17-1.943.562-.577.904-1.162.767-1.308-.138-.146-.693.161-1.24.684l-.989.947-.061.06c-.032.033-.488-.396-1.018-.958-.53-.562-.622-1.351-.206-1.761.415-.41.491-.884.171-1.059-.321-.174-.848-.042-1.175.295-.327.338-.749.445-.942.239-.193-.206-.135-.591.131-.861s.249-.288-.021-.022-.507.461-.538.428c-.032-.034.148-.271.399-.528.253-.258.177-.621-.171-.81-.348-.189-.766-.207-.936-.041-.169.167-.642-.053-1.055-.492s-.725-.818-.696-.847c.028-.029-.041-.103-.155-.165-.114-.062-.636-.568-1.166-1.131-.531-.561-.176-.59.795-.063zm-7.349.262c.12-.733.281-1.381.491-1.895.419-1.021 1.713-.9 2.108-.479.396.42.086 1.396-.689 2.183l-.738.75c-.773.786-1.353.53-1.172-.559zm1.203.746c.278-.268.557-.534.835-.8.798-.764 1.683-1.131 1.977-.819.293.311-.116 1.183-.914 1.947l-1.99 1.908c-.796.765-1.437.884-1.412.266.024-.617.706-1.738 1.504-2.502zm-.094 2.332l2.04-1.955a1.98 1.98 0 0 1 2.815.074L26.33 23.21a2.084 2.084 0 0 1-.039 2.874L10.665 41.819c-.778.784-1.41 1.381-1.41 1.332 0-.048-.657.521-1.469 1.271-.229.213-.459.424-.689.635-.812.748-1.928 1.366-2.352 1.068-.424-.297.064-1.308.884-2.048a988.43 988.43 0 0 0 2.146-1.942c.817-.742 1.479-1.79 1.479-2.339 0-.548-.655-.381-1.463.372L5.152 42.63c-.808.755-1.608.479-1.634-.626a33.675 33.675 0 0 1 .005-1.526c.025-1.104.438-2.367.922-2.821l.876-.822c.848-.877 1.692-1.747 2.538-2.615.769-.792 1.394-1.818 1.394-2.291 0-.474-.635-.226-1.418.554l-3.254 3.236-.504.54c-.279.297-.507-.155-.507-1.011 0-.854.635-2.18 1.417-2.96a647.99 647.99 0 0 1 1.857-1.844l.421-.461c.232-.254-.224.162-1.018.929l-1.046 1.009c-.796.768-1.491 1.419-1.54 1.47-.051.05-.091-.263-.091-.698s.637-1.417 1.423-2.193c.945-.933 1.892-1.864 2.836-2.797.787-.774 1.424-1.815 1.424-2.324 0-.507-.623-.276-1.392.517l-2.899 2.991c-.768.794-1.392.957-1.392.363 0-.593.623-1.716 1.393-2.508.987-1.017 1.954-2.011 2.894-2.977.771-.792 1.396-1.994 1.396-2.686 0-.691-.638-.622-1.425.153l-2.834 2.794c-.787.774-1.424.56-1.424-.481s.648-2.502 1.446-3.266a577.995 577.995 0 0 0 4.097-3.952l.07-.07c.038-.039.069-.301.069-.585s-.631.122-1.408.907l-2.868 2.899c-.776.786-1.406.673-1.406-.251 0-.925.626-2.313 1.4-3.101l2.878-2.929c.775-.787 1.404-1.768 1.404-2.193 0-.425-.644-.146-1.438.622L4.99 14.358c-.794.769-1.439 1.38-1.439 1.366-.002-.017.638-.654 1.43-1.424 1.021-.995 2.005-1.953 2.832-2.754.793-.769 1.438-1.406 1.438-1.428 0-.021-.64.587-1.43 1.36-.928.908-1.876 1.833-2.844 2.777-.79.771-1.461.897-1.493.279-.033-.618.586-1.744 1.378-2.514l2.956-2.879c.792-.771 1.433-1.838 1.433-2.385 0-.547-.636-.359-1.419.419a8602.57 8602.57 0 0 1-3.048 3.026c-.783.778-1.437.772-1.442-.014-.003-.786.655-2.044 1.451-2.808z"/><path fill="#f3f3f1" d="M23.067 31.746c-.773.788-.74.824.074.078 1.146-1.05 2.292-2.099 3.438-3.145.277-.279.559-.559.838-.836.463-.461.779-.897.711-.973-.072-.075-.756.504-1.531 1.291-1.175 1.196-2.354 2.39-3.53 3.585z"/></svg>